<svg xmlns="http://www.w3.org/2000/svg" xmlns:xlink="http://www.w3.org/1999/xlink" width="500" zoomAndPan="magnify" viewBox="0 0 375 374.999991" height="500" preserveAspectRatio="xMidYMid meet" version="1.2"><defs><clipPath id="829fd6c54c"><path d="M 41.835938 45.011719 L 200 45.011719 L 200 192 L 41.835938 192 Z M 41.835938 45.011719 "/></clipPath><clipPath id="1880e1dcbc"><path d="M 52 45.011719 L 315 45.011719 L 315 329.886719 L 52 329.886719 Z M 52 45.011719 "/></clipPath><clipPath id="59db2a6a2b"><path d="M 165 196 L 332.835938 196 L 332.835938 329.886719 L 165 329.886719 Z M 165 196 "/></clipPath></defs><g id="2b2a41770f"><g clip-rule="nonzero" clip-path="url(#829fd6c54c)"><path style=" stroke:none;fill-rule:evenodd;fill:#009689;fill-opacity:1;" d="M 82.382812 154.277344 C 93.632812 119.167969 122.617188 91.996094 158.789062 83.300781 L 199.238281 45.722656 C 194.160156 45.171875 188.996094 44.886719 183.773438 44.886719 C 105.394531 44.886719 41.867188 108.410156 41.867188 186.796875 C 41.867188 188.480469 41.894531 190.152344 41.953125 191.8125 L 56.378906 178.441406 Z M 82.382812 154.277344 "/></g><g clip-rule="nonzero" clip-path="url(#1880e1dcbc)"><path style=" stroke:none;fill-rule:evenodd;fill:#009689;fill-opacity:1;" d="M 119.097656 227.5 L 251.421875 104.605469 L 277.582031 80.3125 L 314.664062 45.875 L 246.691406 45.875 L 236.753906 55.101562 L 206.875 82.863281 L 78.433594 202.183594 L 52.339844 226.382812 L 155.769531 329.804688 L 221.402344 329.804688 L 184.824219 293.234375 Z M 119.097656 227.5 "/></g><g clip-rule="nonzero" clip-path="url(#59db2a6a2b)"><path style=" stroke:none;fill-rule:evenodd;fill:#009689;fill-opacity:1;" d="M 199.753906 196.753906 L 165.785156 228.371094 L 180.714844 243.347656 L 267.175781 329.804688 L 332.8125 329.804688 L 287.085938 284.085938 Z M 199.753906 196.753906 "/></g><path style=" stroke:none;fill-rule:evenodd;fill:#009689;fill-opacity:1;" d="M 273.027344 128.761719 C 283.894531 145.453125 290.21875 165.386719 290.21875 186.789062 C 290.21875 203.097656 286.550781 218.554688 279.992188 232.371094 L 306.210938 258.582031 C 318.585938 237.527344 325.679688 212.988281 325.679688 186.789062 C 325.679688 156.050781 315.910156 127.59375 299.300781 104.355469 Z M 273.027344 128.761719 "/></g></svg>